<svg xmlns="http://www.w3.org/2000/svg" viewBox="0 0 40.72 9.88"><g id="レイヤー_2" data-name="レイヤー 2"><g id="レイヤー_1-2" data-name="レイヤー 1"><path d="M0,.2H2.46A6.56,6.56,0,0,1,4.23.38a1.77,1.77,0,0,1,1,.74A3.33,3.33,0,0,1,5.57,2.9a2,2,0,0,1-.26,1.16,1.86,1.86,0,0,1-1,.5,1.84,1.84,0,0,1,1.16.64,2.52,2.52,0,0,1,.3,1.38v.88a3.42,3.42,0,0,1-.22,1.42,1.19,1.19,0,0,1-.7.64,7.29,7.29,0,0,1-2,.17H0ZM2.47,1.82V3.93h.24c.25,0,.4-.06.47-.18a3.13,3.13,0,0,0,.1-1,1.52,1.52,0,0,0-.09-.62A.35.35,0,0,0,3,1.88,1.73,1.73,0,0,0,2.47,1.82Zm0,3.59V8.06a1,1,0,0,0,.66-.16,1.12,1.12,0,0,0,.15-.72V6.29a1.33,1.33,0,0,0-.13-.74A1.24,1.24,0,0,0,2.47,5.41Z"/><path d="M6.63.2H9.09a6.47,6.47,0,0,1,1.76.18,1.73,1.73,0,0,1,1,.74,3.23,3.23,0,0,1,.37,1.78,1.89,1.89,0,0,1-.26,1.16,1.79,1.79,0,0,1-1,.5,1.82,1.82,0,0,1,1.16.64,2.43,2.43,0,0,1,.31,1.38v.88a3.42,3.42,0,0,1-.22,1.42,1.22,1.22,0,0,1-.7.64,7.34,7.34,0,0,1-2,.17H6.63ZM9.09,1.82V3.93h.25c.24,0,.4-.06.46-.18a2.86,2.86,0,0,0,.1-1,1.56,1.56,0,0,0-.08-.62.38.38,0,0,0-.21-.22A1.76,1.76,0,0,0,9.09,1.82Zm0,3.59V8.06a1.05,1.05,0,0,0,.67-.16,1.21,1.21,0,0,0,.14-.72V6.29a1.24,1.24,0,0,0-.13-.74A1.19,1.19,0,0,0,9.09,5.41Z"/><path d="M17.84.2V7.79h1.5v1.9h-4V.2Z"/><path d="M24.2.2l1.41,9.49H23.09L23,8h-.89l-.15,1.71H19.37L20.63.2ZM22.89,6.3c-.12-1.08-.25-2.4-.38-4-.25,1.82-.4,3.15-.47,4Z"/><path d="M26,.2h2.46a6.47,6.47,0,0,1,1.76.18,1.7,1.7,0,0,1,1,.74,3.23,3.23,0,0,1,.37,1.78,1.89,1.89,0,0,1-.26,1.16,1.79,1.79,0,0,1-1,.5,1.79,1.79,0,0,1,1.16.64,2.43,2.43,0,0,1,.31,1.38v.88a3.42,3.42,0,0,1-.22,1.42,1.22,1.22,0,0,1-.7.64,7.34,7.34,0,0,1-2,.17H26Zm2.46,1.62V3.93h.25c.24,0,.4-.06.46-.18a2.86,2.86,0,0,0,.1-1,1.56,1.56,0,0,0-.08-.62A.38.38,0,0,0,29,1.88,1.76,1.76,0,0,0,28.49,1.82Zm0,3.59V8.06a1.05,1.05,0,0,0,.67-.16,1.21,1.21,0,0,0,.14-.72V6.29a1.24,1.24,0,0,0-.13-.74A1.19,1.19,0,0,0,28.49,5.41Z"/><path d="M38.29,5.75a19,19,0,0,1-.07,2,2.22,2.22,0,0,1-.42,1.09,2.2,2.2,0,0,1-1,.75,3.4,3.4,0,0,1-1.4.26,3.68,3.68,0,0,1-1.37-.24,2.37,2.37,0,0,1-1-.75,2.31,2.31,0,0,1-.44-1.09c0-.39-.07-1.07-.07-2V4.13c0-.95,0-1.63.07-2A2.39,2.39,0,0,1,33.07,1a2.34,2.34,0,0,1,1-.76A3.58,3.58,0,0,1,35.44,0a3.52,3.52,0,0,1,1.37.25,2.2,2.2,0,0,1,1,.75,2.22,2.22,0,0,1,.44,1.08,19.09,19.09,0,0,1,.07,2.05ZM35.82,2.64a3,3,0,0,0-.07-.85.29.29,0,0,0-.3-.18.36.36,0,0,0-.3.14,2.15,2.15,0,0,0-.1.89V7.07a4,4,0,0,0,.07,1,.3.3,0,0,0,.31.19.29.29,0,0,0,.32-.22A4.56,4.56,0,0,0,35.82,7Z"/><path d="M40.72,7.75V9.69H38.93V7.75Z"/></g></g></svg>